<?xml version="1.0" encoding="UTF-8"?>
<svg id="Capa_2" data-name="Capa 2" xmlns="http://www.w3.org/2000/svg" viewBox="0 0 1048.87 340.29">
  <defs>
    <style>
      .cls-1 {
        fill: #59f7dd;
        stroke-width: 0px;
      }
    </style>
  </defs>
  <g id="Capa_1-2" data-name="Capa 1">
    <g>
      <rect class="cls-1" x="2.13" y="68.02" width="2.12" height="188.56"/>
      <polygon class="cls-1" points="17.75 278.02 12.81 273.07 7.08 267.35 7.08 285.19 8.53 286.63 17.29 295.39 28.44 295.39 49.31 316.27 50.77 317.73 50.77 328.88 60.98 339.08 78.81 339.08 30.07 290.33 17.75 278.02"/>
      <polygon class="cls-1" points="262.83 336.3 95.69 336.3 15.59 256.39 15.59 16.05 68.44 16.05 65.28 12.95 91.67 12.95 99.18 20.69 121.4 20.69 114.36 13.02 132.58 13.02 140.02 20.69 162.25 20.69 155.2 13.02 173.43 13.02 180.87 20.69 203.1 20.69 196.05 13.02 215.64 13.02 223.09 20.69 258.15 20.69 283.24 45.78 293.88 45.78 289.96 41.51 297.47 49.07 453.19 49.07 453.26 49.1 453.28 49.07 453.36 49.07 453.36 48.93 458.83 39.52 458.76 39.48 453.99 39.48 449.66 46.94 298.36 46.94 262.43 10.83 261.75 10.83 258.84 7.67 210.45 7.67 211.36 8.6 191.99 8.6 191.13 7.67 168.23 7.67 169.14 8.6 151.14 8.6 150.28 7.67 127.39 7.67 128.29 8.6 110.29 8.6 109.44 7.67 86.54 7.67 89.61 10.83 63.11 10.83 53.89 1.79 14.26 1.79 0 1.79 0 16.05 0 55.68 13.47 69.25 13.47 257.26 94.81 338.43 262.33 338.43 263.41 339.54 263.41 338.58 347.35 338.58 347.35 336.03 262.83 336.03 262.83 336.3"/>
      <rect class="cls-1" x="1044.62" y="66.23" width="2.12" height="188.56"/>
      <polygon class="cls-1" points="1034.61 0 994.99 0 983.93 10.83 957.53 10.83 962.33 5.88 939.44 5.88 938.58 6.81 920.58 6.81 921.49 5.88 898.59 5.88 897.73 6.81 879.73 6.81 880.64 5.88 857.74 5.88 856.89 6.81 837.52 6.81 838.42 5.88 790.03 5.88 754.99 43.98 756.54 43.98 753.69 46.94 605.12 46.94 600.79 39.48 596.02 39.48 595.96 39.52 601.52 49.1 602 48.83 602 49.07 754.59 49.07 759.48 43.98 765.63 43.98 790.72 18.89 825.79 18.89 831.55 12.95 851.24 12.95 845.78 18.89 868 18.89 873.77 12.95 892.08 12.95 886.62 18.89 908.85 18.89 914.62 12.95 932.93 12.95 927.47 18.89 949.69 18.89 955.46 12.95 981.76 12.95 980.43 14.26 1034.61 14.26 1034.61 68.25 1035.3 67.56 1035.3 256.39 956.33 336.3 789.61 336.3 789.61 336.03 705.09 336.03 705.09 338.58 786.69 338.58 786.69 340.29 788.4 338.58 789.61 338.58 789.61 338.43 957.22 338.43 1037.12 257.57 1037.43 257.26 1037.43 65.42 1048.87 53.89 1048.87 14.26 1048.87 0 1034.61 0"/>
      <polygon class="cls-1" points="1031.12 276.22 1018.81 288.54 970.06 337.29 987.89 337.29 998.1 327.08 998.1 315.93 999.56 314.47 1020.44 293.6 1031.58 293.6 1040.35 284.83 1041.79 283.39 1041.79 265.56 1036.07 271.28 1031.12 276.22"/>
    </g>
  </g>
</svg>