<?xml version="1.0" encoding="UTF-8"?>
<svg id="Capa_2" data-name="Capa 2" xmlns="http://www.w3.org/2000/svg" viewBox="0 0 395.48 315.59">
  <defs>
    <style>
      .cls-1 {
        fill: #fff;
        stroke-width: 0px;
      }
    </style>
  </defs>
  <g id="Capa_1-2" data-name="Capa 1">
    <g>
      <path class="cls-1" d="M393.28,46.68L347.76,1.17v-.17H2.04v1.04h-1.04v262.66h152.2v49.83h.42v.05h240.86V46.68h-1.19ZM392.4,312.41h-237.12v-49.78H3.08V3.08h344.2l45.12,45.12v264.21Z"/>
      <path class="cls-1" d="M395.48,315.59h-242.86v-.05h-.42v-49.83H0V1.04l1.04-.04V0h347.72v.75l44.94,44.93h1.78v269.91ZM154.62,313.59h238.86V47.68h-.18l.1.1v265.62h-239.12v-49.78H2.08L2,3.04v260.66h152.2v49.83h.42v.05ZM156.28,311.41h235.12V48.61l-44.53-44.53H4.08v257.55h152.2v49.78ZM3.04,2.08h344.22l-.08-.08H3.04v.08Z"/>
    </g>
  </g>
</svg>